<?xml version="1.0" encoding="UTF-8"?>
<svg version="1.1" xmlns="http://www.w3.org/2000/svg" width="512" height="512">
<path d="M0 0 C0.76533554 -0.01409912 1.53067108 -0.02819824 2.31919861 -0.04272461 C3.55682701 -0.02754288 3.55682701 -0.02754288 4.81945801 -0.01205444 C5.6997316 -0.02081604 6.58000519 -0.02957764 7.48695374 -0.03860474 C10.39061074 -0.06057352 13.29273922 -0.04605505 16.19641113 -0.02914429 C18.21753227 -0.03251315 20.23865142 -0.03736635 22.25976562 -0.04364014 C26.49323843 -0.05100805 30.72618334 -0.04030836 34.95959473 -0.01693726 C40.38391895 0.01155024 45.80700625 -0.00485413 51.2312851 -0.03479958 C55.40408637 -0.05287459 59.57659478 -0.04711353 63.74940491 -0.03416061 C65.74927416 -0.03082718 67.74917007 -0.03491148 69.74900818 -0.04655838 C72.54534237 -0.05927032 75.33967875 -0.03988562 78.13586426 -0.01205444 C78.96094986 -0.0221756 79.78603546 -0.03229675 80.63612366 -0.04272461 C81.4014592 -0.02862549 82.16679474 -0.01452637 82.95532227 0 C83.94526562 0.00282769 83.94526562 0.00282769 84.95520782 0.00571251 C88.56484977 1.12870867 89.7911582 2.5195256 91.97766113 5.63491821 C92.7329518 9.89280649 92.64720152 14.11241826 92.60585022 18.4269104 C92.61294461 19.74255856 92.62003899 21.05820671 92.62734836 22.41372299 C92.64629547 26.06430849 92.6340237 29.71422505 92.61662543 33.36479378 C92.6032673 37.30216144 92.61868289 41.23943021 92.63044739 45.17678833 C92.64884004 52.88954087 92.64030091 60.60204031 92.62235916 68.314785 C92.6083415 74.58228087 92.60443856 80.84970797 92.60780144 87.11721802 C92.60827888 88.00876327 92.60875632 88.90030853 92.60924823 89.81887031 C92.61027455 91.629948 92.61132991 93.44102567 92.61241399 95.25210333 C92.62098434 111.27168606 92.60429522 127.29114649 92.57458496 143.31069946 C92.54574675 158.86023089 92.53866358 174.40958612 92.55407715 189.95913696 C92.57083283 206.8858571 92.57487998 223.81249354 92.55736679 240.73921585 C92.55552237 242.54368336 92.55368765 244.34815088 92.55186272 246.15261841 C92.55095063 247.04048342 92.55003854 247.92834842 92.54909881 248.84311843 C92.54348947 255.10409565 92.54680429 261.36503207 92.55340767 267.62600708 C92.56113395 275.25462427 92.5544138 282.88306791 92.52923263 290.51165009 C92.51672109 294.40495323 92.5106109 298.29798596 92.52177429 302.19129944 C92.53363891 306.40876002 92.51458929 310.62550773 92.49232483 314.84292603 C92.5005656 316.07783657 92.50880636 317.31274712 92.51729685 318.58507919 C92.4369097 326.79665457 92.4369097 326.79665457 90.19174767 330.89473534 C86.7808712 333.57554692 83.31300634 333.33207702 79.15759277 333.28189087 C77.82277107 333.29503326 77.82277107 333.29503326 76.46098328 333.30844116 C73.51943189 333.33044715 70.57938405 333.31587694 67.63781738 333.29898071 C65.5928468 333.3023488 63.54787816 333.30720136 61.50291443 333.31347656 C57.21638943 333.32084978 52.93038535 333.31012883 48.6439209 333.28677368 C43.15119171 333.25830394 37.65968497 333.27467603 32.16700077 333.304636 C27.94358629 333.32271207 23.72046113 333.31694915 19.49703789 333.30399704 C17.47204888 333.30066296 15.44703355 333.30475016 13.42207527 333.31639481 C10.5897184 333.3291064 7.7593341 333.30972146 4.92712402 333.28189087 C4.09111664 333.29201202 3.25510925 333.30213318 2.39376831 333.31256104 C1.61857346 333.29846191 0.8433786 333.28436279 0.04469299 333.26983643 C-0.6239424 333.2679513 -1.2925778 333.26606617 -1.98147488 333.26412392 C-5.60442522 332.1471553 -6.83109381 330.76030888 -9.02233887 327.63491821 C-9.77925401 323.37722944 -9.69622639 319.15754906 -9.65725708 314.84292603 C-9.66505703 313.52727787 -9.67285699 312.21162971 -9.6808933 310.85611343 C-9.70178137 307.2055397 -9.69144315 303.55561884 -9.67596221 299.90504265 C-9.66466041 295.96766595 -9.68210555 292.0304024 -9.69586182 288.0930481 C-9.71811138 280.3803047 -9.71328545 272.6678044 -9.69879861 264.95505142 C-9.6875131 258.68755343 -9.68597248 252.42012364 -9.69141769 246.15261841 C-9.69218386 245.26107315 -9.69295002 244.3695279 -9.69373941 243.45096612 C-9.69533801 241.63988843 -9.69695908 239.82881075 -9.69860236 238.0177331 C-9.7128649 221.0296246 -9.69645925 204.04165094 -9.66960053 187.05356455 C-9.64726128 172.47254198 -9.65114127 157.89171844 -9.67419434 143.31069946 C-9.70094346 126.38397315 -9.71149155 109.45736507 -9.69613302 92.53062057 C-9.69454025 90.72615307 -9.6929684 88.92168555 -9.69141769 87.11721802 C-9.69064632 86.22935301 -9.68987494 85.341488 -9.68908019 84.426718 C-9.68476052 78.16572628 -9.69205548 71.90480946 -9.70381546 65.64382935 C-9.71782915 58.01518607 -9.71406448 50.38680008 -9.68741174 42.75818634 C-9.67425813 38.86482582 -9.669147 34.97189447 -9.6856575 31.07853699 C-9.70327263 26.86095342 -9.68226123 22.64445628 -9.65725708 18.4269104 C-9.66841069 17.19199986 -9.6795643 15.95708931 -9.69105589 14.68475723 C-9.59593693 6.45204711 -9.59593693 6.45204711 -6.73405266 2.37510109 C-4.16589785 0.72704404 -2.98534715 0.0085274 0 0 Z M18.97766113 39.63491821 C18.87851164 41.79687818 18.8513373 43.96214107 18.85067749 46.12637329 C18.8491175 46.81255895 18.84755751 47.4987446 18.84595025 48.20572376 C18.84193812 50.52198704 18.8451307 52.83818562 18.8482666 55.15444946 C18.84691265 56.80812621 18.84513276 58.46180265 18.84295654 60.11547852 C18.83838143 64.61948251 18.84017209 69.1234637 18.84333563 73.62746811 C18.84585883 78.33022882 18.8435218 83.03298751 18.84194946 87.73574829 C18.84012765 95.63475904 18.84253438 103.53376045 18.84729004 111.43276978 C18.85273268 120.57874582 18.85097003 129.72469958 18.84546363 138.87067509 C18.84093284 146.70843987 18.84028179 154.54619792 18.8429023 162.38396358 C18.84446526 167.07159224 18.84465833 171.75921039 18.84136581 176.44683838 C18.83848758 180.85279006 18.8404619 185.25871286 18.84626007 189.66466141 C18.84758793 191.28647437 18.84719312 192.90828975 18.84499741 194.53010178 C18.8422869 196.73458892 18.84566577 198.93898207 18.85067749 201.14346313 C18.85105452 202.38013229 18.85143154 203.61680145 18.85181999 204.89094543 C18.66473912 207.54665281 18.66473912 207.54665281 19.97766113 208.63491821 C21.3789145 208.73814019 22.78527383 208.77341251 24.19030762 208.78018188 C25.08471054 208.78656174 25.97911346 208.79294159 26.90061951 208.79951477 C27.87350418 208.80062759 28.84638885 208.80174042 29.84875488 208.80288696 C30.84141861 208.80621536 31.83408234 208.80954376 32.85682678 208.81297302 C34.96098363 208.81804662 37.06514856 208.82038122 39.16931152 208.82022095 C42.39787996 208.82240651 45.6261064 208.84055521 48.85461426 208.85952759 C50.89432662 208.86246153 52.93404062 208.86444632 54.97375488 208.86538696 C55.94461533 208.87257248 56.91547577 208.879758 57.91575623 208.88716125 C58.81331131 208.88408463 59.71086639 208.881008 60.63562012 208.87783813 C61.82356422 208.87997566 61.82356422 208.87997566 63.0355072 208.88215637 C65.21455959 208.80612055 65.21455959 208.80612055 66.97766113 206.63491821 C67.28356184 203.6623571 67.28356184 203.6623571 67.23162842 200.10586548 C67.23630839 199.08861436 67.23630839 199.08861436 67.24108291 198.05081272 C67.24909056 195.76756279 67.24272865 193.4845766 67.2364502 191.20132446 C67.23915884 189.56882572 67.24271905 187.9363282 67.24707031 186.30383301 C67.25621173 181.86177975 67.25264287 177.41981907 67.24631214 172.97776413 C67.24126119 168.33686822 67.24594107 163.69598043 67.24908447 159.05508423 C67.25272677 151.26039196 67.24791813 143.46573755 67.23840332 135.67105103 C67.22751826 126.64945091 67.23104366 117.62794119 67.24205613 108.60634327 C67.25112152 100.87129599 67.25241796 93.13627597 67.24717879 85.40122509 C67.24405496 80.77672531 67.24366103 76.15226807 67.25025177 71.527771 C67.25601375 67.18086627 67.25204949 62.83407848 67.24046326 58.48718643 C67.2378105 56.88836995 67.23859219 55.28954369 67.24298859 53.69073105 C67.24842139 51.51500983 67.24163794 49.33966775 67.23162842 47.16397095 C67.23087437 45.94427109 67.23012032 44.72457123 67.22934341 43.46791077 C67.2711323 40.50054936 67.2711323 40.50054936 64.97766113 38.63491821 C62.96503153 38.33658246 62.96503153 38.33658246 60.63562012 38.39199829 C59.73806503 38.38892166 58.84050995 38.38584503 57.91575623 38.38267517 C56.45946556 38.39345345 56.45946556 38.39345345 54.97375488 38.40444946 C53.4833242 38.4051368 53.4833242 38.4051368 51.96278381 38.40583801 C49.86039029 38.40886212 47.75799904 38.41675312 45.65563965 38.42910767 C42.42500944 38.44736256 39.19466565 38.44961741 35.96398926 38.44937134 C33.9255753 38.45428641 31.8871633 38.46011468 29.84875488 38.46694946 C28.87587021 38.46806229 27.90298553 38.46917511 26.90061951 38.47032166 C25.55901512 38.47989143 25.55901512 38.47989143 24.19030762 38.48965454 C23.39914047 38.49346634 22.60797333 38.49727814 21.79283142 38.50120544 C19.95709528 38.43773458 19.95709528 38.43773458 18.97766113 39.63491821 Z M24.10266113 263.50991821 C19.10171561 270.86424987 17.94806584 276.7590967 18.97766113 285.63491821 C20.77395925 292.30042695 25.35747634 296.85152561 30.97766113 300.63491821 C37.25210207 303.92476022 43.12306778 304.15816118 49.97766113 302.63491821 C57.35726936 299.79660736 61.91572979 295.63186052 65.21594238 288.59976196 C68.0234695 281.35778176 67.35329673 275.11856288 64.30578613 268.06851196 C61.41267565 262.76731246 56.90959517 258.15023919 51.11828613 256.07632446 C40.60975085 253.90941847 31.46252602 255.40971189 24.10266113 263.50991821 Z " fill="#000000" transform="translate(138.0223388671875,142.36508178710938)"/>
<path d="M0 0 C1.33723114 -0.01051392 1.33723114 -0.01051392 2.70147705 -0.02124023 C5.64765593 -0.03884221 8.59287389 -0.02718963 11.5390625 -0.01367188 C13.58642766 -0.01636615 15.63379157 -0.02024804 17.68115234 -0.02526855 C21.97180363 -0.03116659 26.26212181 -0.02259067 30.55273438 -0.00390625 C36.05437738 0.01888331 41.55523988 0.00576189 47.05685425 -0.01819611 C51.28448372 -0.03264572 55.51192795 -0.0280519 59.73956299 -0.01768494 C61.76816907 -0.01501534 63.79679193 -0.01829556 65.82537842 -0.02760315 C68.66008088 -0.03775484 71.49351695 -0.02228697 74.328125 0 C75.16772766 -0.00809692 76.00733032 -0.01619385 76.87237549 -0.02453613 C80.31189704 0.02559875 82.59233503 0.08258303 85.3792758 2.20300865 C87.57874111 5.05534684 87.66506085 6.48586241 87.66742706 10.05862427 C87.67785805 11.19274183 87.68828904 12.3268594 87.69903612 13.49534416 C87.68565179 15.36477527 87.68565179 15.36477527 87.67199707 17.27197266 C87.67660504 18.60901634 87.68295726 19.94605496 87.69090605 21.28308296 C87.70763718 24.96057047 87.69933614 28.63764391 87.68696117 32.31513309 C87.67792834 36.27975869 87.69187159 40.244312 87.70288086 44.20892334 C87.72068964 51.97691948 87.71681564 59.74476125 87.7052303 67.5127635 C87.6962055 73.82462299 87.69496783 80.13643914 87.69932556 86.44830322 C87.69993849 87.34582341 87.70055143 88.2433436 87.70118293 89.16806138 C87.7024618 90.99122033 87.70375865 92.81437927 87.7050733 94.63753819 C87.716486 111.74290858 87.70335457 128.84819329 87.68187183 145.95354962 C87.66400022 160.63834683 87.66710413 175.32301757 87.68554688 190.0078125 C87.70694141 207.0509722 87.7153873 224.09405676 87.70309782 241.13722801 C87.70182359 242.95376967 87.70056611 244.77031134 87.69932556 246.58685303 C87.69870846 247.48068195 87.69809136 248.37451088 87.69745556 249.29542553 C87.6939984 255.60144865 87.69983886 261.90742419 87.70924377 268.21343994 C87.72044942 275.89589999 87.71745405 283.57819651 87.6961208 291.26063776 C87.68559093 295.18216867 87.68152123 299.10342671 87.69471741 303.02495575 C87.7066075 306.61255021 87.70013557 310.199618 87.6788072 313.78716445 C87.67219858 315.70471413 87.68530755 317.62230016 87.69903612 319.53981209 C87.68338964 321.24098844 87.68338964 321.24098844 87.66742706 322.97653198 C87.66677765 323.95707991 87.66612824 324.93762783 87.66545916 325.94788933 C87.01328956 329.29029874 85.84880156 330.474912 83.1640625 332.51757812 C80.09861671 332.91208882 77.39311974 333.06471431 74.328125 333.03515625 C72.99089386 333.04567017 72.99089386 333.04567017 71.62664795 333.05639648 C68.68046907 333.07399846 65.73525111 333.06234588 62.7890625 333.04882812 C60.74169734 333.0515224 58.69433343 333.05540429 56.64697266 333.0604248 C52.35632137 333.06632284 48.06600319 333.05774692 43.77539062 333.0390625 C38.27374762 333.01627294 32.77288512 333.02939436 27.27127075 333.05335236 C23.04364128 333.06780197 18.81619705 333.06320815 14.58856201 333.05284119 C12.55995593 333.05017159 10.53133307 333.05345181 8.50274658 333.0627594 C5.66804412 333.07291109 2.83460805 333.05744322 0 333.03515625 C-0.83960266 333.04325317 -1.67920532 333.0513501 -2.54425049 333.05969238 C-5.98377204 333.0095575 -8.26421003 332.95257322 -11.0511508 330.8321476 C-13.25061611 327.97980941 -13.33693585 326.54929384 -13.33930206 322.97653198 C-13.34973305 321.84241442 -13.36016404 320.70829685 -13.37091112 319.53981209 C-13.36198823 318.29352468 -13.35306535 317.04723728 -13.34387207 315.76318359 C-13.34848004 314.42613991 -13.35483226 313.08910129 -13.36278105 311.75207329 C-13.37951218 308.07458578 -13.37121114 304.39751234 -13.35883617 300.72002316 C-13.34980334 296.75539756 -13.36374659 292.79084425 -13.37475586 288.82623291 C-13.39256464 281.05823677 -13.38869064 273.290395 -13.3771053 265.52239275 C-13.3680805 259.21053326 -13.36684283 252.89871711 -13.37120056 246.58685303 C-13.37181349 245.68933284 -13.37242643 244.79181265 -13.37305793 243.86709487 C-13.3743368 242.04393592 -13.37563365 240.22077698 -13.3769483 238.39761806 C-13.388361 221.29224767 -13.37522957 204.18696296 -13.35374683 187.08160663 C-13.33587522 172.39680942 -13.33897913 157.71213868 -13.35742188 143.02734375 C-13.37881641 125.98418405 -13.3872623 108.94109949 -13.37497282 91.89792824 C-13.37369859 90.08138658 -13.37244111 88.26484491 -13.37120056 86.44830322 C-13.37058346 85.5544743 -13.36996636 84.66064537 -13.36933056 83.73973072 C-13.3658734 77.4337076 -13.37171386 71.12773206 -13.38111877 64.82171631 C-13.39232442 57.13925626 -13.38932905 49.45695974 -13.3679958 41.77451849 C-13.35746593 37.85298758 -13.35339623 33.93172954 -13.36659241 30.0102005 C-13.3784825 26.42260604 -13.37201057 22.83553825 -13.3506822 19.2479918 C-13.34407358 17.33044212 -13.35718255 15.41285609 -13.37091112 13.49534416 C-13.35526464 11.79416781 -13.35526464 11.79416781 -13.33930206 10.05862427 C-13.33865265 9.07807634 -13.33800324 8.09752842 -13.33733416 7.08726692 C-11.92841672 -0.13352185 -6.20488018 -0.05983836 0 0 Z M14.1640625 39.51757812 C14.1640625 94.95757812 14.1640625 150.39757812 14.1640625 207.51757812 C16.48247234 208.67678304 17.81845381 208.644311 20.3984375 208.64697266 C21.27274414 208.65012482 22.14705078 208.65327698 23.04785156 208.65652466 C23.99370117 208.65450043 24.93955078 208.6524762 25.9140625 208.65039062 C27.3676416 208.65182571 27.3676416 208.65182571 28.85058594 208.65328979 C30.90169337 208.65397102 32.95280295 208.65212074 35.00390625 208.64794922 C38.15109073 208.64260017 41.29813248 208.64789616 44.4453125 208.65429688 C46.43489615 208.65363608 48.42447971 208.6523549 50.4140625 208.65039062 C51.35991211 208.65241486 52.30576172 208.65443909 53.28027344 208.65652466 C54.15458008 208.6533725 55.02888672 208.65022034 55.9296875 208.64697266 C56.70086914 208.64617706 57.47205078 208.64538147 58.26660156 208.64456177 C60.25241926 208.63443783 60.25241926 208.63443783 62.1640625 207.51757812 C62.1640625 152.07757813 62.1640625 96.63757813 62.1640625 39.51757812 C59.84565266 38.35837321 58.50967119 38.39084525 55.9296875 38.38818359 C55.05538086 38.38503143 54.18107422 38.38187927 53.28027344 38.37863159 C52.33442383 38.38065582 51.38857422 38.38268005 50.4140625 38.38476562 C49.44500977 38.3838089 48.47595703 38.38285217 47.47753906 38.38186646 C45.42643163 38.38118523 43.37532205 38.38303551 41.32421875 38.38720703 C38.17703427 38.39255608 35.02999252 38.38726009 31.8828125 38.38085938 C29.89322885 38.38152017 27.90364529 38.38280135 25.9140625 38.38476562 C24.96821289 38.38274139 24.02236328 38.38071716 23.04785156 38.37863159 C22.17354492 38.38178375 21.29923828 38.38493591 20.3984375 38.38818359 C19.62725586 38.38897919 18.85607422 38.38977478 18.06152344 38.39059448 C16.07570574 38.40071842 16.07570574 38.40071842 14.1640625 39.51757812 Z M18.6640625 264.45507812 C14.61603168 270.58429994 13.38571306 276.25298335 14.1640625 283.51757812 C15.65985842 290.30522348 19.30603752 295.77962491 24.98046875 299.80664062 C31.46526564 303.44860736 38.59247197 304.51181405 45.7890625 302.51757812 C52.39251862 299.92294581 57.45942344 295.55813451 60.6640625 289.20507812 C63.32983282 282.2385317 63.11817065 275.15005174 60.125 268.32617188 C56.4906456 261.48590323 51.4802433 257.91899491 44.1640625 255.51757812 C34.12513656 253.87749009 25.11138204 256.34142238 18.6640625 264.45507812 Z " fill="#000000" transform="translate(26.8359375,142.482421875)"/>
<path d="M0 0 C1.23082306 0.00045319 1.23082306 0.00045319 2.48651123 0.00091553 C3.36269104 0.02156067 4.23887085 0.04220581 5.14160156 0.06347656 C6.04597961 0.06913635 6.95035767 0.07479614 7.88214111 0.08062744 C10.76604509 0.10298908 13.64869917 0.1531847 16.53222656 0.20410156 C18.48923985 0.22416685 20.44627264 0.24241757 22.40332031 0.25878906 C27.19676946 0.30285317 31.98928622 0.37187904 36.78222656 0.45410156 C36.91717529 1.14117187 37.05212402 1.82824219 37.19116211 2.53613281 C37.36945557 3.4371875 37.54774902 4.33824219 37.73144531 5.26660156 C37.90764404 6.15992188 38.08384277 7.05324219 38.26538086 7.97363281 C38.83619259 10.71309771 39.34591544 13.03505126 40.78222656 15.45410156 C43.25068877 16.58814465 45.65296119 17.42057336 48.28222656 18.10253906 C52.57507567 19.35014834 55.0819959 20.37858388 57.57519531 24.20800781 C59.87566415 29.4597784 61.09709723 32.8220821 59.78222656 38.45410156 C58.6060376 38.47915771 57.42984863 38.50421387 56.21801758 38.5300293 C51.87008034 38.62392963 47.5223094 38.72419205 43.17456055 38.82641602 C41.28983438 38.8698309 39.40506721 38.911501 37.52026367 38.95141602 C34.81709408 39.00896049 32.1141322 39.0726996 29.41113281 39.13769531 C28.56321671 39.15440781 27.7153006 39.1711203 26.84169006 39.18833923 C22.9993058 38.91819351 22.9993058 38.91819351 19.78222656 40.45410156 C19.68311047 42.59073183 19.65590289 44.73070103 19.65524292 46.86962891 C19.65290293 47.88665673 19.65290293 47.88665673 19.65051568 48.92423058 C19.64650365 51.21285504 19.64969609 53.50141402 19.65283203 55.79003906 C19.65147808 57.42401163 19.64969818 59.05798389 19.64752197 60.69195557 C19.64294691 65.14224235 19.6447375 69.59250606 19.64790106 74.04279327 C19.65042428 78.68949956 19.64808723 83.3362038 19.64651489 87.98291016 C19.64469309 95.78776404 19.64709979 103.59260848 19.65185547 111.39746094 C19.65729811 120.43437393 19.65553546 129.47126436 19.65002906 138.5081768 C19.64549825 146.25252412 19.64484723 153.99686463 19.64746773 161.74121284 C19.64903068 166.37295019 19.64922379 171.00467691 19.64593124 175.63641357 C19.64305298 179.98983573 19.64502739 184.34322866 19.6508255 188.69664764 C19.65215334 190.29910992 19.65175858 191.90157463 19.64956284 193.50403595 C19.64685226 195.68224914 19.65023128 197.86036718 19.65524292 200.03857422 C19.65561995 201.26049469 19.65599697 202.48241516 19.65638542 203.74136353 C19.47310576 206.36950758 19.47310576 206.36950758 20.78222656 207.45410156 C22.18897876 207.55215007 23.60057792 207.58208343 25.01074219 207.58349609 C25.9083728 207.58664825 26.80600342 207.58980042 27.73083496 207.5930481 C28.70685669 207.59102386 29.68287842 207.58899963 30.68847656 207.58691406 C32.18102966 207.58834915 32.18102966 207.58834915 33.70373535 207.58981323 C35.81209374 207.59049516 37.92045421 207.58864 40.02880859 207.58447266 C43.26827684 207.57912459 46.50760642 207.58441724 49.74707031 207.59082031 C51.79003937 207.59015953 53.83300834 207.58887838 55.87597656 207.58691406 C56.85199829 207.58893829 57.82802002 207.59096252 58.83361816 207.5930481 C60.18006409 207.58831985 60.18006409 207.58831985 61.55371094 207.58349609 C62.34789429 207.5827005 63.14207764 207.58190491 63.96032715 207.58108521 C65.8021246 207.65294703 65.8021246 207.65294703 66.78222656 206.45410156 C66.89077638 204.6828727 66.92910101 202.90731297 66.94044495 201.13279724 C66.95023376 199.97868347 66.96002258 198.8245697 66.97010803 197.63548279 C66.97586349 196.35802689 66.98161896 195.08057098 66.98754883 193.7644043 C66.9971222 192.41451717 67.00713196 191.06463308 67.01754761 189.7147522 C67.04466139 186.03932813 67.06563577 182.36389114 67.08554959 178.68842196 C67.10736936 174.85134427 67.1347776 171.01430671 67.16160583 167.17726135 C67.21158711 159.90641849 67.2565057 152.63555342 67.2996282 145.364667 C67.34895423 137.08907954 67.40388949 128.81353233 67.45930779 120.53798378 C67.57321123 103.51006022 67.68003196 86.48209933 67.78222656 69.45410156 C71.56674276 71.19598318 73.66899704 73.35119993 76.46972656 76.45410156 C80.95536461 81.06600201 84.34659323 83.14896378 90.78222656 83.45410156 C91.44222656 83.45410156 92.10222656 83.45410156 92.78222656 83.45410156 C92.85064726 114.32574398 92.90374675 145.19736637 92.93542255 176.0690666 C92.93917472 179.71279257 92.94305768 183.35651839 92.94702148 187.00024414 C92.94780842 187.72565198 92.94859535 188.45105982 92.94940612 189.19844971 C92.96246417 200.94800708 92.98612021 212.69752046 93.01368495 224.44705173 C93.04172806 236.5009154 93.0584005 248.55475602 93.06449205 260.60865098 C93.06824096 267.38008957 93.07726645 274.1514364 93.09941673 280.92284203 C93.11973953 287.29293609 93.12606884 293.66288899 93.12154961 300.03301239 C93.12237669 302.37396575 93.12836721 304.7149237 93.13984299 307.05584908 C93.15472099 310.2466106 93.15119705 313.43683588 93.14299011 316.62760925 C93.15172864 317.55854548 93.16046716 318.48948171 93.16947049 319.44862813 C93.13594818 324.25500457 92.96890652 327.57957152 89.78222656 331.45410156 C86.48129155 333.10456907 82.80293757 332.61957811 79.17333984 332.63110352 C78.28214447 332.63767471 77.3909491 332.64424591 76.4727478 332.65101624 C73.51601076 332.67076889 70.55932452 332.68241521 67.60253906 332.69238281 C66.09028559 332.6984961 66.09028559 332.6984961 64.54748154 332.70473289 C59.21313429 332.72560041 53.87881284 332.7399001 48.54443359 332.74926758 C43.02712731 332.76034324 37.5102231 332.79475462 31.99305916 332.83443928 C27.75689936 332.86054638 23.5208363 332.86895408 19.28460312 332.87254906 C17.25038813 332.87742904 15.21617785 332.88908295 13.18204117 332.90758705 C10.33766769 332.93185656 7.494347 332.93103602 4.64990234 332.92407227 C3.38578522 332.94328735 3.38578522 332.94328735 2.09613037 332.96289062 C-1.35334844 332.93205217 -3.63650922 332.89585382 -6.43382788 330.76993275 C-8.63172425 327.91673079 -8.71877193 326.48560347 -8.721138 322.91305542 C-8.73156899 321.77893785 -8.74199998 320.64482029 -8.75274706 319.47633553 C-8.74382417 318.23004812 -8.73490129 316.98376072 -8.72570801 315.69970703 C-8.73031598 314.36266335 -8.7366682 313.02562472 -8.74461699 311.68859673 C-8.76134812 308.01110922 -8.75304708 304.33403578 -8.74067211 300.65654659 C-8.73163928 296.69192099 -8.74558253 292.72736769 -8.7565918 288.76275635 C-8.77440058 280.9947602 -8.77052658 273.22691844 -8.75894123 265.45891619 C-8.74991644 259.1470567 -8.74867877 252.83524055 -8.7530365 246.52337646 C-8.75364943 245.62585627 -8.75426236 244.72833608 -8.75489387 243.80361831 C-8.75617274 241.98045936 -8.75746959 240.15730042 -8.75878423 238.33414149 C-8.77019694 221.22877111 -8.75706551 204.1234864 -8.73558277 187.01813006 C-8.71771116 172.33333286 -8.72081507 157.64866211 -8.73925781 142.96386719 C-8.76065235 125.92070749 -8.76909824 108.87762293 -8.75680876 91.83445168 C-8.75553453 90.01791002 -8.75427705 88.20136834 -8.7530365 86.38482666 C-8.7524194 85.49099773 -8.75180229 84.59716881 -8.75116649 83.67625415 C-8.74770933 77.37023104 -8.7535498 71.06425549 -8.76295471 64.75823975 C-8.77416035 57.0757797 -8.77116499 49.39348318 -8.74983174 41.71104193 C-8.73930187 37.78951102 -8.73523217 33.86825298 -8.74842834 29.94672394 C-8.76031844 26.35912948 -8.75384651 22.77206168 -8.73251814 19.18451524 C-8.72590952 17.26696556 -8.73901849 15.34937952 -8.75274706 13.4318676 C-8.73710057 11.73069125 -8.73710057 11.73069125 -8.721138 9.99514771 C-8.72048859 9.01459978 -8.71983918 8.03405186 -8.71917009 7.02379036 C-7.78553707 2.23886349 -4.76546568 -0.05883291 0 0 Z M23.26269531 265.18457031 C19.46319512 271.00913394 18.0105756 277.42456861 19.14941406 284.29394531 C21.17017878 291.19198783 25.8660105 296.52220642 31.78222656 300.45410156 C37.4960521 303.44061787 42.8447305 304.52448884 49.19628906 302.79785156 C56.85095494 300.11524962 61.76920128 296.14464791 65.65722656 289.01660156 C68.18027585 281.02694549 68.32755206 275.12954851 64.78222656 267.45410156 C61.10002568 261.79964005 56.4161221 257.20562514 49.78222656 255.45410156 C38.34747171 254.07849196 30.56754041 256.17470416 23.26269531 265.18457031 Z " fill="#000000" transform="translate(253.2177734375,142.5458984375)"/>
<path d="M0 0 C8.91 0 17.82 0 27 0 C29.50686627 5.64044911 31.51849368 10.19743357 33 16 C34.12535156 16.23783203 34.12535156 16.23783203 35.2734375 16.48046875 C40.6869246 17.71452563 45.43717976 19.05317417 50.3125 21.75 C54.6903988 24.0574594 57.12191536 24.50777162 62 23 C64.33051541 21.96995991 66.62136836 20.90906425 68.88671875 19.7421875 C71.48762829 18.82874422 72.42474688 19.07890669 75 20 C78.00795775 22.28257819 80.6248819 24.9774956 83.3125 27.625 C84.06595703 28.32496094 84.81941406 29.02492188 85.59570312 29.74609375 C90.97050882 35.02780801 90.97050882 35.02780801 91.11328125 39.734375 C89.90203656 43.28735941 88.47827564 46.4725355 86.7421875 49.7890625 C85.52700958 53.40901358 86.50383905 55.97137364 88.12109375 59.32421875 C88.77271484 60.49404297 88.77271484 60.49404297 89.4375 61.6875 C92.03478026 66.67938258 93.20959027 71.4553347 94 77 C94.56847656 77.18175781 95.13695312 77.36351563 95.72265625 77.55078125 C96.49480469 77.80214844 97.26695312 78.05351563 98.0625 78.3125 C98.81660156 78.55613281 99.57070313 78.79976563 100.34765625 79.05078125 C103.62070136 80.22213613 106.80474509 81.63060504 110 83 C110 92.24 110 101.48 110 111 C97 116 97 116 94 116 C93.938125 116.9075 93.87625 117.815 93.8125 118.75 C92.91222224 125.22405621 89.84710057 131.47877149 86.83203125 137.2265625 C85.5834025 139.88795899 86.12676865 141.19318496 87 144 C88.05317557 146.25856791 89.12455909 148.49913643 90.2578125 150.71875 C91.19988155 153.61437277 90.84632129 155.08734645 90 158 C87.76165484 161.08907067 85.01032699 163.68434173 82.3125 166.375 C81.60416016 167.12394531 80.89582031 167.87289062 80.16601562 168.64453125 C74.87431617 173.97043375 74.87431617 173.97043375 70.765625 174.109375 C67.49091424 172.79579046 64.37864832 171.36151161 61.24609375 169.7421875 C56.61959833 168.21343249 52.74521966 170.43810067 48.5625 172.4375 C38.75180636 177 38.75180636 177 33 177 C32.67 178.65 32.34 180.3 32 182 C30.68 185.63 29.36 189.26 28 193 C18.76 193 9.52 193 0 193 C-5 181 -5 181 -6 177 C-7.918125 176.62875 -7.918125 176.62875 -9.875 176.25 C-16.30724169 174.82513633 -22.5032177 172.66452153 -28 169 C-32.8110609 169.22909814 -36.55169192 171.08554484 -40.75390625 173.2578125 C-43.63009519 174.20820537 -45.10283412 173.84355068 -48 173 C-51.08791192 170.73861696 -53.6836412 167.96526075 -56.375 165.25 C-57.12394531 164.53328125 -57.87289063 163.8165625 -58.64453125 163.078125 C-59.34707031 162.376875 -60.04960937 161.675625 -60.7734375 160.953125 C-61.73902588 159.99647949 -61.73902588 159.99647949 -62.72412109 159.02050781 C-64 157 -64 157 -63.76464844 154.39111328 C-62.99467673 151.98335373 -62.03356341 149.86921024 -60.875 147.625 C-58.9060228 143.23987862 -58.61214174 140.73504582 -60 136 C-61.21154975 133.24035889 -62.48805909 130.51935196 -63.7890625 127.80078125 C-65.46851071 123.91638006 -66.250501 120.15631262 -67 116 C-67.65226562 115.81824219 -68.30453125 115.63648438 -68.9765625 115.44921875 C-69.85054688 115.19785156 -70.72453125 114.94648438 -71.625 114.6875 C-72.48351562 114.44386719 -73.34203125 114.20023437 -74.2265625 113.94921875 C-77 113 -77 113 -83 110 C-83 101.09 -83 92.18 -83 83 C-79.473125 82.01 -79.473125 82.01 -75.875 81 C-71.28070209 79.40731006 -68.00716212 77.81172169 -65.80859375 73.3203125 C-64.71553656 70.53819501 -63.8878707 67.71303524 -63.09765625 64.83203125 C-62.13846292 61.48338836 -61.23108343 59.57418943 -59.25 56.8125 C-58.15255488 55.09299892 -58.15255488 55.09299892 -58 53 C-59.25008047 49.43143119 -60.80848232 46.2572301 -62.64453125 42.953125 C-64 40 -64 40 -63.81225586 38.07446289 C-62.0766451 33.64179543 -58.05685419 30.502553 -54.75 27.1875 C-53.98558594 26.38634766 -53.22117187 25.58519531 -52.43359375 24.75976562 C-51.68722656 24.00759766 -50.94085938 23.25542969 -50.171875 22.48046875 C-49.4922168 21.78848389 -48.81255859 21.09649902 -48.11230469 20.38354492 C-46 19 -46 19 -43.4074707 19.19482422 C-40.55725221 20.14807648 -38.08657895 21.5210537 -35.4375 22.9375 C-31.7009067 24.54020546 -29.88829776 25.25153329 -25.9375 24.1328125 C-22.89994385 22.58851965 -22.89994385 22.58851965 -19.95703125 20.71875 C-16.95477303 18.9737122 -14.48546857 18.32644955 -11.125 17.5625 C-8.31320215 16.63879796 -6.57400109 15.88791208 -4.94287109 13.36474609 C-2.78955368 9.00894878 -1.49332735 4.68178305 0 0 Z M-21.14453125 67.66015625 C-29.71363623 78.46624864 -31.90292653 90.5548597 -31 104 C-29.02530511 115.36992292 -22.62102116 125.99410673 -13.421875 132.94921875 C-2.93276374 139.93707639 7.62642515 143.13053655 20.3359375 141.59765625 C32.32787616 139.19072319 42.44692224 133.75783681 50 124 C57.2074244 112.34133645 60.6187664 100.71406612 58 87 C54.64227757 74.78483735 48.02542714 64.54512989 37 58 C16.41126412 47.32865521 -4.99947419 50.87058594 -21.14453125 67.66015625 Z " fill="#000000" transform="translate(388,37)"/>
</svg>
